# xmcd
#
# Track frame offsets:
# 150
# 13877
# 26649
# 39576
# 54823
# 69615
# 82899
# 98186
# 113298
# 128940
# 145437
# 157177
# 172588
# 187052
# 199991
# 214130
# 229120
# 242602
# 259064
# 272306
# 284606
# 300724
# 314251
#
# Disc length: 4341 seconds
#
#
# Revision: 2
# Processed by: cddbd v1.5.1PL2 Copyright (c) Steve Scherf et al.
# Submitted via: FreeRIP 2.943 
#
DISCID=4310f317
DTITLE=Sertanejos Boêmios - Os maiores Sucessos
DYEAR=2004
DGENRE=Sertanejo
TTITLE0=A Noite Do Nosso Amor - Cezar and Paulinho
TTITLE1=Espuma Da Cerveja - Gian and Giovane
TTITLE2=Minha Serenata - Chico Rey and Paraná
TTITLE3=Toalha de Banho - Bobo e Robson
TTITLE4=Parede e Meia - Trio Parada Dura
TTITLE5=Fio de Cabelo - Chitãozinho e Xororó
TTITLE6=Jogo do Amor - Milionario e José Rico
TTITLE7=Boate Azul - Joaquim e Manoel
TTITLE8=Biquini Preto - Duduca e Dalvan
TTITLE9=A dois Graus - Alan e Aladin
TTITLE10=Do Outro Lado da Cidade - Lean e Rangel
TTITLE11=Garçon - Reginaldo Rossi
TTITLE12=Ninguem quis Dormir - Chitãozinho e Xororo
TTITLE13=Nosso Amor - Bob e Robinson
TTITLE14=Condenado por Amor - Bob e Robinson
TTITLE15=Livro da Vida - MIlionario e Jose Rico
TTITLE16=Vestido de Seda - Teodoro e Sampaio
TTITLE17=Roupa de Lua de Mel - Gian e Giovani
TTITLE18=Esta Noite Como Lembrança - João Mineiro e Marciano
TTITLE19=Palhaço de Circo - Peão e Andorinha
TTITLE20=Loira do Carro Branco - João Paulo e Daniel
TTITLE21=Meu Companheiro - Alan e Aladin
TTITLE22=Whiky com Gelo - Jão Mineiro e Marciano
EXTD=
EXTT0=
EXTT1=
EXTT2=
EXTT3=
EXTT4=
EXTT5=
EXTT6=
EXTT7=
EXTT8=
EXTT9=
EXTT10=
EXTT11=
EXTT12=
EXTT13=
EXTT14=
EXTT15=
EXTT16=
EXTT17=
EXTT18=
EXTT19=
EXTT20=
EXTT21=
EXTT22=
PLAYORDER=
